<svg xmlns="http://www.w3.org/2000/svg" width="69" height="49" fill="#ffffff" viewBox="0 0 69 49">
  <path d="M51.8233 20.2367c-.5787 0-.9342.3894-.9342 1.1993 0 .8099.3555 1.1992.9342 1.1992s.9262-.3893.9262-1.1992c0-.8099-.3556-1.1993-.9262-1.1993Zm-24.3056 4.6659c-.9437 0-1.5643.695-1.5643 1.8618 0 1.1668.6206 1.8617 1.5643 1.8617.9438 0 1.5725-.6949 1.5725-1.8617 0-1.1668-.6287-1.8618-1.5725-1.8618Zm5.1878-2.2674c.5706 0 .9262-.3893.9262-1.1992 0-.8099-.3556-1.1993-.9262-1.1993-.5705 0-.9342.3894-.9342 1.1993 0 .8099.3555 1.1992.9342 1.1992Zm5.2702 3.7398c-.5705 0-.9099.4137-.9099 1.1168 0 .703.3394 1.0924.9099 1.0924.5706 0 .9181-.3894.9181-1.1087s-.3394-1.1005-.9181-1.1005ZM61.0739 7.51947c-9.3723-9.37232-24.5665-9.37232-33.9388 0-.9816.98158-1.8604 2.02941-2.6365 3.12593V.491587C11.2446.491587.5 11.2362.5 24.4902c0 13.2541 10.7446 23.9987 23.9986 23.9987V38.3351c.7761 1.0965 1.6536 2.143 2.6365 3.1259 9.3723 9.3723 24.5665 9.3723 33.9388 0 9.3724-9.3723 9.3724-24.5665 0-33.93882v-.00271ZM32.7055 19.2024c1.3575 0 2.2336.8775 2.2336 2.2336s-.8775 2.2336-2.2336 2.2336-2.2417-.8775-2.2417-2.2336.8775-2.2336 2.2417-2.2336Zm-5.1878 10.6392c-1.8036 0-3.0204-1.2168-3.0204-3.0772 0-1.8604 1.1033-2.9583 2.7649-3.0678-1.6576-.0757-2.7649-1.2385-2.7649-3.0705s1.1411-3.0772 2.9366-3.0772c1.398 0 2.5567.7693 2.7879 2.2417h-1.4142c-.1825-.6869-.7112-1.0262-1.3737-1.0262-.9518 0-1.4805.703-1.4805 1.8617s.53 1.8618 1.4805 1.8618c.695 0 1.2736-.4056 1.4061-1.1831h1.398c-.1703 1.4697-1.2073 2.2877-2.5242 2.3877 1.6873.0866 2.823 1.2791 2.823 3.0719s-1.2249 3.0772-3.0204 3.0772h.0013Zm6.1802-3.276h-.3312c-.7193 0-1.1331.3556-1.1331 1.1587v1.9861h-1.2911v-4.2683h1.2573v.7936c.1826-.53.5787-.8599 1.2169-.8599.0987 0 .1906.0081.2812.0162v1.175-.0014Zm1.6468 3.1435h-1.2912v-4.2684h1.2912v4.2684Zm0-4.6578h-1.2912v-1.0924h1.2912v1.0924Zm4.8146 4.5253c0 1.1506-.7774 1.8536-2.1836 1.8536-1.3317 0-2.0185-.6449-2.0686-1.5629h1.2737c.0324.3975.3055.5962.8193.5962.5787 0 .868-.315.868-.8355v-.6125c-.2569.3718-.6449.6044-1.225.6044-1.133 0-1.886-.8856-1.886-2.143 0-1.2574.7274-2.1349 1.8617-2.1349.6125 0 1.0262.2569 1.2817.6625v-.5624h1.2574v4.1372l.0014-.0027Zm1.8117.1325h-1.2912v-4.2684h1.2912v4.2684Zm0-4.6578h-1.2912v-1.0924h1.2912v1.0924Zm0-1.4804h-1.2912v-2.5486c0-.4638-.1825-.7193-.6368-.7193-.3894 0-.7368.2569-.7368.9099v2.358H38.015v-2.5486c0-.4638-.1826-.7193-.6368-.7193-.3894 0-.745.2569-.745.9099v2.358H35.342v-4.2684h1.2574v.6043c.2731-.4056.653-.703 1.2155-.703.6205 0 1.0924.2731 1.3236.7693.2893-.43.745-.7693 1.3318-.7693.918 0 1.498.5705 1.498 1.5967v2.7717l.0027-.0013Zm4.6659 6.1382h-1.2912v-2.5405c0-.4718-.2069-.7287-.6868-.7287-.3975 0-.8113.2569-.8113.8856v2.3822h-1.2911v-4.2683h1.2573v.6043c.2813-.3975.7193-.703 1.3399-.703.8437 0 1.4805.5124 1.4805 1.5724v2.796h.0027Zm2.5405-6.1382h-1.2912v-2.5486c0-.4638-.1825-.7193-.6368-.7193-.3894 0-.7369.2569-.7369.9099v2.358h-1.2912v-2.5486c0-.4638-.1825-.7193-.6368-.7193-.3894 0-.745.2569-.745.9099v2.358h-1.2912v-4.2684h1.2574v.6043c.2731-.4056.6531-.703 1.2155-.703.6206 0 1.0925.2731 1.3237.7693.2893-.43.7449-.7693 1.3317-.7693.918 0 1.4981.5705 1.4981 1.5967v2.7717l.0027-.0013Zm2.6473.0987c-1.3656 0-2.2417-.8775-2.2417-2.2336s.8775-2.2336 2.2417-2.2336c1.3642 0 2.2335.8775 2.2335 2.2336s-.8774 2.2336-2.2335 2.2336Zm6.7182-.0987h-1.2912v-2.5405c0-.4719-.2068-.7288-.6868-.7288-.3975 0-.8112.2569-.8112.8856v2.3823h-1.2912v-4.2684h1.2574v.6044c.2812-.3975.7193-.7031 1.3398-.7031.8437 0 1.4805.5124 1.4805 1.5724v2.7961h.0027Z"/>
</svg>
