<?xml version="1.0" encoding="UTF-8"?><svg id="Layer_2" xmlns="http://www.w3.org/2000/svg" viewBox="0 0 500.01 355.02"><defs><style>.cls-1{stroke-width:0px;fill:#ffffff}</style></defs><g id="Artwork"><path class="cls-1" d="m238.21,163.79c4.22,0,6.85-2.88,6.85-8.87s-2.63-8.87-6.85-8.87-6.91,2.88-6.91,8.87,2.63,8.87,6.91,8.87Zm-38.37,16.77c-6.98,0-11.57,5.14-11.57,13.77s4.59,13.77,11.57,13.77,11.63-5.14,11.63-13.77-4.65-13.77-11.63-13.77Zm77.34,10.89c-4.22,0-6.73,3.06-6.73,8.26s2.51,8.08,6.73,8.08,6.79-2.88,6.79-8.2-2.51-8.14-6.79-8.14h0ZM448.02,51.99c-69.32-69.32-181.7-69.32-251.02,0-7.26,7.26-13.76,15.01-19.5,23.12V0C79.47,0,0,79.48,0,177.51s79.47,177.5,177.5,177.5v-75.1c5.74,8.11,12.23,15.85,19.5,23.12,69.32,69.32,181.7,69.32,251.02,0,69.32-69.32,69.32-181.7,0-251.02v-.02Zm-209.82,86.41c10.04,0,16.52,6.49,16.52,16.52s-6.49,16.52-16.52,16.52-16.58-6.49-16.58-16.52,6.49-16.52,16.58-16.52Zm-38.37,78.69c-13.34,0-22.34-9-22.34-22.76s8.16-21.88,20.45-22.69c-12.26-.56-20.45-9.16-20.45-22.71s8.44-22.76,21.72-22.76c10.34,0,18.91,5.69,20.62,16.58h-10.46c-1.35-5.08-5.26-7.59-10.16-7.59-7.04,0-10.95,5.2-10.95,13.77s3.92,13.77,10.95,13.77c5.14,0,9.42-3,10.4-8.75h10.34c-1.26,10.87-8.93,16.92-18.67,17.66,12.48.64,20.88,9.46,20.88,22.72s-9.06,22.76-22.34,22.76h.01Zm45.71-24.23h-2.45c-5.32,0-8.38,2.63-8.38,8.57v14.69h-9.55v-31.57h9.3v5.87c1.35-3.92,4.28-6.36,9-6.36.73,0,1.41.06,2.08.12v8.69h0Zm12.18,23.25h-9.55v-31.57h9.55v31.57Zm0-34.45h-9.55v-8.08h9.55v8.08Zm35.61,33.47c0,8.51-5.75,13.71-16.15,13.71-9.85,0-14.93-4.77-15.3-11.56h9.42c.24,2.94,2.26,4.41,6.06,4.41,4.28,0,6.42-2.33,6.42-6.18v-4.53c-1.9,2.75-4.77,4.47-9.06,4.47-8.38,0-13.95-6.55-13.95-15.85s5.38-15.79,13.77-15.79c4.53,0,7.59,1.9,9.48,4.9v-4.16h9.3v30.6-.02Zm13.4.98h-9.55v-31.57h9.55v31.57Zm0-34.45h-9.55v-8.08h9.55v8.08Zm0-10.95h-9.55v-18.85c0-3.43-1.35-5.32-4.71-5.32-2.88,0-5.45,1.9-5.45,6.73v17.44h-9.55v-18.85c0-3.43-1.35-5.32-4.71-5.32-2.88,0-5.51,1.9-5.51,6.73v17.44h-9.55v-31.57h9.3v4.47c2.02-3,4.83-5.2,8.99-5.2,4.59,0,8.08,2.02,9.79,5.69,2.14-3.18,5.51-5.69,9.85-5.69,6.79,0,11.08,4.22,11.08,11.81v20.5h.02Zm34.51,45.4h-9.55v-18.79c0-3.49-1.53-5.39-5.08-5.39-2.94,0-6,1.9-6,6.55v17.62h-9.55v-31.57h9.3v4.47c2.08-2.94,5.32-5.2,9.91-5.2,6.24,0,10.95,3.79,10.95,11.63v20.68h.02Zm18.79-45.4h-9.55v-18.85c0-3.43-1.35-5.32-4.71-5.32-2.88,0-5.45,1.9-5.45,6.73v17.44h-9.55v-18.85c0-3.43-1.35-5.32-4.71-5.32-2.88,0-5.51,1.9-5.51,6.73v17.44h-9.55v-31.57h9.3v4.47c2.02-3,4.83-5.2,8.99-5.2,4.59,0,8.08,2.02,9.79,5.69,2.14-3.18,5.51-5.69,9.85-5.69,6.79,0,11.08,4.22,11.08,11.81v20.5h.02Zm19.58.73c-10.1,0-16.58-6.49-16.58-16.52s6.49-16.52,16.58-16.52,16.52,6.49,16.52,16.52-6.49,16.52-16.52,16.52Zm49.69-.73h-9.55v-18.79c0-3.49-1.53-5.39-5.08-5.39-2.94,0-6,1.9-6,6.55v17.62h-9.55v-31.57h9.3v4.47c2.08-2.94,5.32-5.2,9.91-5.2,6.24,0,10.95,3.79,10.95,11.63v20.68h.02Zm-49.69-24.66c-4.28,0-6.91,2.88-6.91,8.87s2.63,8.87,6.91,8.87,6.85-2.88,6.85-8.87-2.63-8.87-6.85-8.87Z"/></g></svg>