<svg xmlns="http://www.w3.org/2000/svg" width="1366" height="1366" viewBox="0 0 1366 1366">
  <path fill="#212529" d="M683 1365c376.66 0 682-305.34 682-682 0-376.658-305.34-682-682-682C306.342 1 1 306.342 1 683c0 376.66 305.342 682 682 682ZM579.96 439.045c134.756-134.727 353.218-134.727 487.97 0v.039c134.76 134.727 134.76 353.144 0 487.871-134.752 134.725-353.214 134.725-487.97 0-14.132-14.13-26.749-29.173-37.907-44.935v145.96C351.487 1027.98 197 873.526 197 683s154.487-344.981 345.053-344.981V483.98c11.158-15.762 23.794-30.825 37.907-44.935Z"/>
</svg>
